<svg xmlns="http://www.w3.org/2000/svg" version="1.1" xmlns:xlink="http://www.w3.org/1999/xlink" xmlns:svgjs="http://svgjs.dev/svgjs" width="128" height="128" viewBox="0 0 128 128"><g transform="matrix(0.5659340659340659,0,0,0.5659340659340659,27.868171112183184,12.333870967741937)"><svg viewBox="0 0 109 155" data-background-color="#ffffff" preserveAspectRatio="xMidYMid meet" height="182" width="128" xmlns="http://www.w3.org/2000/svg" xmlns:xlink="http://www.w3.org/1999/xlink"><g id="tight-bounds" transform="matrix(1,0,0,1,-0.13234060402685088,0.25)"><svg viewBox="0 0 109.2646812080537 154.5" height="154.5" width="109.2646812080537"><g><svg viewBox="0 0 109.2646812080537 154.5" height="154.5" width="109.2646812080537"><g><svg viewBox="0 0 109.2646812080537 154.5" height="154.5" width="109.2646812080537"><g><svg viewBox="0 0 109.2646812080537 154.5" height="154.5" width="109.2646812080537"><g><svg viewBox="0 0 109.2646812080537 154.5" height="154.5" width="109.2646812080537"><g transform="matrix(1,0,0,1,0,0)"><svg width="109.2646812080537" viewBox="-2.4 -40.9 42.15 59.599999999999994" height="154.5" data-palette-color="#1c4b82"><path d="M7.9-23.1L7.9-23.1Q5.5-17.9 5.5-13.8L5.5-13.8Q5.5-5.35 11.3-3.45L11.3-3.45Q13-3 14.78-3 16.55-3 18.35-3.45L18.35-3.45Q21.95-4.4 24.8-6.3 27.65-8.2 28.4-9.95L28.4-9.95Q30.4-14.6 32.7-14.6L32.7-14.6Q33.85-14.6 34.25-13.3L34.25-13.3Q34.45-12.8 34.35-12.2L34.35-12.2Q33.85-8.3 32.2-4.48 30.55-0.65 27.55 4.3L27.55 4.3Q33.55 4.35 38.5 5.6L38.5 5.6Q39.55 5.85 39.55 6.3L39.55 6.3Q39.55 6.85 38.1 6.5L38.1 6.5Q34.65 5.6 28.15 5.6L28.15 5.6Q27.55 5.6 26.85 5.6L26.85 5.6Q23.8 10 18.73 13.38 13.65 16.75 8.85 18L8.85 18Q6.2 18.7 4.35 18.7 2.5 18.7 1.25 18.25L1.25 18.25Q-2.4 16.9-2.4 14.7L-2.4 14.7Q-2.4 14.05-2.05 13.3L-2.05 13.3Q-0.7 10.3 5.05 7.75L5.05 7.75Q9.4 5.8 14.23 5.1 19.05 4.4 25.05 4.3L25.05 4.3Q28.75-1.95 30.1-8L30.1-8 30.3-8.85Q27.9-6.55 24.88-4.78 21.85-3 19.6-2.3L19.6-2.3Q16-1.15 13.68-1.15 11.35-1.15 9.6-1.8L9.6-1.8Q6.4-2.9 4.4-6.2L4.4-6.2Q2.25-9.7 2.25-14.55 2.25-19.4 4.8-24.95L4.8-24.95Q1.5-28.35 1.5-32.18 1.5-36 4.6-39.45L4.6-39.45Q5.2-40.1 5.48-39.93 5.75-39.75 5.25-39.05L5.25-39.05Q3-36.05 3-33L3-33Q3-29.5 5.6-26.45L5.6-26.45Q5.9-27.1 6.7-28.4L6.7-28.4Q10.6-34.8 17.3-38.2L17.3-38.2Q22.55-40.9 27.45-40.9L27.45-40.9Q28.8-40.9 30.15-40.7L30.15-40.7Q36.6-39.7 38.85-35.4L38.85-35.4Q39.75-33.7 39.75-31.73 39.75-29.75 38.5-27.5L38.5-27.5Q35.7-22.65 28.7-20.7L28.7-20.7Q25-19.65 21.15-19.65L21.15-19.65Q13.05-19.65 7.9-23.1ZM28.6-39.35L28.6-39.35Q24.3-39.35 19.5-36.45L19.5-36.45Q12.45-32.25 8.55-24.4L8.55-24.4Q10.9-22.6 13.98-21.85 17.05-21.1 18.9-21.1L18.9-21.1Q29.45-21.1 34.85-26.75L34.85-26.75Q37.55-29.65 37.55-32.55L37.55-32.55Q37.55-37.15 32.4-38.75L32.4-38.75Q30.5-39.35 28.6-39.35ZM0.15 15.05L0.15 15.05Q0.15 16.45 2.55 16.95L2.55 16.95Q3.35 17.15 4.3 17.15L4.3 17.15Q7.85 17.15 13.3 14.6L13.3 14.6Q20.2 11.45 24.25 5.65L24.25 5.65Q19 5.8 15.05 6.45L15.05 6.45Q9.35 7.3 4.2 10.6L4.2 10.6Q0.15 13.2 0.15 15.05Z" opacity="1" transform="matrix(1,0,0,1,0,0)" fill="#1c4b82" class="undefined-text-0" data-fill-palette-color="primary" id="text-0"></path></svg></g></svg></g></svg></g></svg></g></svg></g><defs></defs></svg><rect width="109.2646812080537" height="154.5" fill="none" stroke="none" visibility="hidden"></rect></g></svg></g></svg>